<svg width="236" height="36" viewBox="0 0 236 36" fill="none" xmlns="http://www.w3.org/2000/svg">
<circle cx="21.6035" cy="8.7923" r="2.7923" fill="#212529"/>
<path d="M11.2181 13.1032L13.3246 10.213L15.725 11.7316L12.2469 16.6793C12.1979 16.81 12.0999 17.2182 12.0999 17.806C12.0999 18.3939 12.6878 18.9981 12.9817 19.2267L17.7335 21.97L14.7942 25.4971C14.7452 25.742 14.7746 26.3789 15.2841 26.9667C15.7936 27.5546 16.6721 27.375 17.0477 27.2117L21.3096 22.2149C21.3749 22.1006 21.5153 21.774 21.5545 21.3821C21.5937 20.9902 21.3422 20.6636 21.2116 20.5493L17.2926 18.3939L20.5258 13.7401C20.5584 13.5278 20.614 13.015 20.5748 12.6623C20.5356 12.3096 20.1339 11.8295 19.9379 11.6336L13.4716 7.51863C13.3736 7.46964 13.0993 7.38146 12.7857 7.42065C12.4722 7.45984 12.2305 7.63293 12.1489 7.71458L9.16064 11.9275C9.16064 12.1561 9.26842 12.7113 9.69951 13.1032C10.1306 13.4951 10.8915 13.2665 11.2181 13.1032Z" fill="#212529"/>
<path d="M12.1979 19.0308C11.7668 18.5997 11.7244 17.7407 11.757 17.3652L7.25017 22.9988L3.08623 25.3502C2.97192 25.6604 2.81189 26.4279 3.08623 27.0157C3.36056 27.6036 4.27826 27.7179 4.70282 27.7016C6.07447 26.9668 8.86677 25.4677 9.06272 25.3502C9.25867 25.2326 9.34031 25.1379 9.35664 25.1052L13.3736 20.0105C13.1614 19.8635 12.629 19.4618 12.1979 19.0308Z" fill="#212529"/>
<path d="M20.6238 14.3279C20.7413 14.1319 20.8687 13.7237 20.9177 13.5441L22.3873 16.3854L25.7185 14.9647C25.9961 14.9647 26.6199 15.1117 26.8942 15.6995C27.1685 16.2874 26.8452 16.8589 26.6492 17.0712L22.3383 18.9817C22.3057 18.998 22.1326 19.0405 21.7015 19.0797C21.2704 19.1189 20.9993 18.8347 20.9177 18.6878L19.4481 15.9934C19.791 15.5199 20.5062 14.5238 20.6238 14.3279Z" fill="#212529"/>
<rect y="14.5239" width="11.0712" height="1.27368" rx="0.636839" fill="#212529"/>
<rect x="2.64532" y="17.1692" width="7.1522" height="1.27368" rx="0.636839" fill="#212529"/>
<rect x="4.11499" y="11.8785" width="4.40889" height="1.27368" rx="0.636839" fill="#212529"/>
<path d="M137 13.3514V9H149.108V13.3514H137Z" fill="#212529"/>
<path d="M137 26.2162V15.8108H149.108V19.7838H142.297V26.2162H137Z" fill="#212529"/>
<path d="M150.811 26.2162V15.8108H156.297V26.2162H150.811Z" fill="#212529"/>
<path d="M150.811 9V13.3514H156.297V9H150.811Z" fill="#212529"/>
<path d="M157.811 13.3514V9H172V13.3514H157.811Z" fill="#212529"/>
<path d="M158.284 23.1892V15.8108H163.865V20.8243C163.865 21.1396 163.77 21.8648 164.527 21.8648H171.054V26.2162H161.122C159.86 26.2162 158.284 25.6108 158.284 23.1892Z" fill="#212529"/>
<path d="M190.496 26H185.168L179.528 17.456V26H174.2V9.008H179.528L185.168 17.696V9.008H190.496V26ZM198.231 13.256V15.344H203.511V19.352H198.231V21.752H204.231V26H192.903V9.008H204.231V13.256H198.231ZM212.887 26.168C210.855 26.168 209.175 25.696 207.847 24.752C206.535 23.792 205.823 22.392 205.711 20.552H211.375C211.455 21.528 211.887 22.016 212.671 22.016C212.959 22.016 213.199 21.952 213.391 21.824C213.599 21.68 213.703 21.464 213.703 21.176C213.703 20.776 213.487 20.456 213.055 20.216C212.623 19.96 211.951 19.672 211.039 19.352C209.951 18.968 209.047 18.592 208.327 18.224C207.623 17.856 207.015 17.32 206.503 16.616C205.991 15.912 205.743 15.008 205.759 13.904C205.759 12.8 206.039 11.864 206.599 11.096C207.175 10.312 207.951 9.72 208.927 9.32C209.919 8.92 211.031 8.72 212.263 8.72C214.343 8.72 215.991 9.2 217.207 10.16C218.439 11.12 219.087 12.472 219.151 14.216H213.415C213.399 13.736 213.279 13.392 213.055 13.184C212.831 12.976 212.559 12.872 212.239 12.872C212.015 12.872 211.831 12.952 211.687 13.112C211.543 13.256 211.471 13.464 211.471 13.736C211.471 14.12 211.679 14.44 212.095 14.696C212.527 14.936 213.207 15.232 214.135 15.584C215.207 15.984 216.087 16.368 216.775 16.736C217.479 17.104 218.087 17.616 218.599 18.272C219.111 18.928 219.367 19.752 219.367 20.744C219.367 21.784 219.111 22.72 218.599 23.552C218.087 24.368 217.343 25.008 216.367 25.472C215.391 25.936 214.231 26.168 212.887 26.168ZM227.887 26.168C225.855 26.168 224.175 25.696 222.847 24.752C221.535 23.792 220.823 22.392 220.711 20.552H226.375C226.455 21.528 226.887 22.016 227.671 22.016C227.959 22.016 228.199 21.952 228.391 21.824C228.599 21.68 228.703 21.464 228.703 21.176C228.703 20.776 228.487 20.456 228.055 20.216C227.623 19.96 226.951 19.672 226.039 19.352C224.951 18.968 224.047 18.592 223.327 18.224C222.623 17.856 222.015 17.32 221.503 16.616C220.991 15.912 220.743 15.008 220.759 13.904C220.759 12.8 221.039 11.864 221.599 11.096C222.175 10.312 222.951 9.72 223.927 9.32C224.919 8.92 226.031 8.72 227.263 8.72C229.343 8.72 230.991 9.2 232.207 10.16C233.439 11.12 234.087 12.472 234.151 14.216H228.415C228.399 13.736 228.279 13.392 228.055 13.184C227.831 12.976 227.559 12.872 227.239 12.872C227.015 12.872 226.831 12.952 226.687 13.112C226.543 13.256 226.471 13.464 226.471 13.736C226.471 14.12 226.679 14.44 227.095 14.696C227.527 14.936 228.207 15.232 229.135 15.584C230.207 15.984 231.087 16.368 231.775 16.736C232.479 17.104 233.087 17.616 233.599 18.272C234.111 18.928 234.367 19.752 234.367 20.744C234.367 21.784 234.111 22.72 233.599 23.552C233.087 24.368 232.343 25.008 231.367 25.472C230.391 25.936 229.231 26.168 227.887 26.168Z" fill="#212529"/>
<path d="M33.7912 26L28 9H33.7912L37.1538 20.7692L40.7033 9H46.4011L40.7033 26H33.7912Z" fill="#212529"/>
<path d="M52.8462 15.7253H47.6154V26H52.8462V15.7253Z" fill="#212529"/>
<path d="M52.8462 13.2967H47.6154V9H52.8462V13.2967Z" fill="#212529"/>
<path d="M47.8956 13.2967L46.4011 9L44.9066 13.2967H39.8626L43.7857 16.7527L42.3846 20.956L46.4011 18.4341L50.4176 20.956L49.0165 16.7527L52.8461 13.2967H47.8956Z" fill="#F5F5F5"/>
<path d="M63.744 26L60.552 19.904H60.528V26H55.2V9.008H63.12C64.496 9.008 65.672 9.256 66.648 9.752C67.624 10.232 68.352 10.896 68.832 11.744C69.328 12.576 69.576 13.52 69.576 14.576C69.576 15.712 69.256 16.72 68.616 17.6C67.992 18.48 67.088 19.112 65.904 19.496L69.6 26H63.744ZM60.528 16.352H62.64C63.152 16.352 63.536 16.24 63.792 16.016C64.048 15.776 64.176 15.408 64.176 14.912C64.176 14.464 64.04 14.112 63.768 13.856C63.512 13.6 63.136 13.472 62.64 13.472H60.528V16.352ZM84.6221 9.008V13.232H80.1101V26H74.7821V13.232H70.3181V9.008H84.6221ZM91.2752 9.008V18.584C91.2752 19.368 91.4432 19.992 91.7792 20.456C92.1312 20.904 92.6912 21.128 93.4592 21.128C94.2272 21.128 94.7952 20.904 95.1632 20.456C95.5312 19.992 95.7152 19.368 95.7152 18.584V9.008H101.019V18.584C101.019 20.2 100.683 21.584 100.011 22.736C99.3392 23.872 98.4192 24.728 97.2512 25.304C96.0832 25.88 94.7792 26.168 93.3392 26.168C91.8992 26.168 90.6192 25.88 89.4992 25.304C88.3952 24.728 87.5312 23.872 86.9072 22.736C86.2832 21.6 85.9712 20.216 85.9712 18.584V9.008H91.2752ZM114.213 23.432H108.549L107.709 26H102.117L108.333 9.008H114.477L120.669 26H115.053L114.213 23.432ZM112.917 19.424L111.381 14.696L109.845 19.424H112.917ZM127.208 21.968H132.344V26H121.88V9.008H127.208V21.968Z" fill="#212529"/>
</svg>
